<?xml version="1.0" standalone="no"?>
<!DOCTYPE svg PUBLIC "-//W3C//DTD SVG 20010904//EN"
 "http://www.w3.org/TR/2001/REC-SVG-20010904/DTD/svg10.dtd">
<svg version="1.0" xmlns="http://www.w3.org/2000/svg"
 width="506.000000pt" height="506.000000pt" viewBox="0 0 506.000000 506.000000"
 preserveAspectRatio="xMidYMid meet">
<metadata>
Created by potrace 1.11, written by Peter Selinger 2001-2013
</metadata>
<g transform="translate(0.000000,506.000000) scale(0.100000,-0.100000)"
fill="#000000" stroke="none">
<path d="M1313 4968 c-86 -5 -267 -42 -323 -65 -15 -6 -30 -11 -52 -16 -37 -9
-296 -145 -318 -167 -3 -3 -25 -21 -50 -40 -25 -19 -51 -39 -57 -45 -25 -20
-139 -133 -167 -166 -149 -169 -290 -468 -322 -679 -11 -74 -12 -439 -2 -525
10 -87 27 -169 53 -255 9 -30 17 -62 19 -70 21 -85 134 -323 214 -447 132
-204 323 -419 627 -702 44 -41 112 -104 150 -140 72 -67 199 -182 245 -221
144 -123 574 -546 696 -684 38 -44 76 -87 84 -96 8 -9 31 -36 50 -61 39 -50
54 -68 90 -113 57 -70 120 -156 181 -246 35 -52 66 -97 69 -100 3 -3 10 -14
16 -25 22 -39 38 -26 99 76 76 128 250 376 288 408 9 9 17 19 17 23 0 5 8 16
18 26 9 10 37 43 62 73 103 124 210 237 405 429 165 163 257 251 296 284 12
10 68 60 123 110 272 245 554 518 694 671 66 72 216 271 264 347 40 66 122
229 142 284 10 27 21 58 26 69 14 31 39 111 44 139 3 14 7 30 10 35 3 5 17 61
31 125 22 103 25 139 25 323 0 224 -2 231 -69 451 -69 222 -235 488 -390 627
-25 22 -52 47 -61 55 -35 34 -133 102 -182 128 -29 15 -60 32 -68 37 -17 11
-116 54 -140 60 -8 3 -42 14 -74 25 -33 11 -61 18 -64 15 -3 -2 -14 1 -26 7
-27 16 -54 20 -201 37 -93 11 -347 6 -410 -8 -42 -10 -100 -26 -165 -47 -8 -3
-16 -5 -17 -5 -9 2 -89 -35 -95 -43 -4 -6 -8 -8 -8 -4 0 14 -242 -126 -260
-150 -3 -4 -23 -20 -45 -36 -22 -16 -85 -74 -139 -128 -54 -54 -105 -98 -113
-98 -7 0 -35 23 -61 51 -180 192 -498 388 -690 425 -8 1 -21 6 -30 10 -31 13
-86 23 -177 30 -121 9 -157 9 -262 2z m337 -396 c137 -32 233 -75 374 -165 61
-39 212 -195 253 -262 53 -85 69 -138 77 -247 4 -51 -4 -64 -44 -72 -113 -21
-190 -45 -277 -87 -138 -66 -239 -164 -302 -291 -23 -47 -43 -96 -45 -109 -1
-14 -6 -30 -10 -37 -14 -23 -14 -197 -1 -275 30 -167 132 -309 265 -369 52
-23 160 -62 288 -103 96 -31 112 -40 113 -58 1 -26 1 -514 0 -540 -1 -13 -7
-16 -25 -13 -109 20 -218 140 -246 272 l-11 50 -202 -1 c-111 0 -207 -4 -214
-8 -12 -7 -12 -135 0 -182 12 -49 48 -129 72 -163 39 -53 153 -159 191 -177
18 -9 36 -19 39 -24 4 -8 121 -66 180 -91 68 -28 135 -51 165 -56 54 -10 58
-17 55 -107 -3 -126 -21 -115 191 -115 l184 1 -3 94 c-3 100 3 116 47 119 11
1 41 7 66 13 25 6 55 14 67 16 12 3 35 10 50 17 16 6 35 12 43 14 28 6 110 47
110 56 0 5 5 6 10 3 6 -3 10 -1 10 4 0 6 5 11 12 11 12 0 118 88 151 125 38
43 97 154 121 227 36 107 39 201 12 362 -3 15 -11 34 -17 42 -6 8 -9 14 -6 14
8 0 -22 66 -48 105 -18 28 -79 92 -119 123 -20 16 -182 92 -196 92 -5 0 -21 5
-37 12 -15 6 -59 21 -98 33 -79 26 -133 44 -154 55 -12 5 -15 47 -14 251 1
134 2 252 2 262 1 16 5 16 44 -5 75 -40 107 -82 142 -185 l23 -68 203 0 204 0
3 54 c4 65 -21 177 -53 240 -27 55 -97 146 -138 180 -16 14 -34 29 -41 35 -47
45 -233 138 -320 160 -32 9 -60 17 -62 19 -2 2 -6 28 -9 58 -4 29 -8 59 -10
66 -2 7 -1 14 3 17 4 2 9 19 10 37 2 29 46 135 62 149 3 3 23 27 44 54 130
161 321 290 521 351 107 33 155 39 300 39 139 0 242 -16 322 -49 19 -8 39 -13
43 -10 5 3 10 2 12 -2 1 -5 26 -18 53 -31 53 -25 163 -93 204 -127 26 -21 135
-131 160 -160 36 -44 77 -103 91 -130 8 -16 22 -41 31 -55 9 -14 30 -61 47
-105 27 -73 36 -107 59 -230 18 -92 6 -360 -21 -485 -3 -14 -8 -38 -12 -55 -8
-43 -27 -98 -36 -109 -4 -6 -8 -16 -8 -24 0 -39 -150 -310 -203 -368 -7 -7
-23 -27 -37 -45 -117 -155 -441 -488 -724 -744 -49 -44 -101 -91 -116 -105
-15 -14 -67 -62 -117 -107 -49 -46 -128 -119 -174 -163 -46 -45 -104 -101
-129 -124 -77 -75 -242 -247 -315 -331 -38 -44 -72 -82 -75 -85 -3 -3 -29 -34
-58 -70 -29 -36 -69 -83 -89 -104 l-36 -39 -35 44 c-20 24 -131 138 -248 254
-273 270 -1012 993 -1155 1131 -84 81 -275 280 -319 333 -19 24 -45 54 -57 68
-13 14 -23 29 -23 32 0 3 -11 18 -24 32 -13 14 -32 41 -41 60 -10 19 -21 36
-26 39 -4 3 -32 55 -62 115 -69 139 -117 276 -132 380 -3 23 -8 52 -10 65 -18
84 -22 235 -10 340 5 41 10 82 10 90 9 116 83 297 179 439 30 45 163 182 222
229 39 32 136 92 147 92 5 0 21 8 35 18 15 10 47 24 72 32 25 7 50 17 55 20
16 11 100 30 163 36 31 4 58 8 60 9 12 11 251 -7 322 -23z m692 -1362 c0 -122
-2 -224 -6 -227 -3 -3 -32 0 -63 7 -110 24 -177 93 -182 186 -5 102 26 160
115 218 35 23 121 48 133 40 2 -2 3 -102 3 -224z m488 -810 c52 -14 99 -48
133 -96 24 -34 28 -49 28 -110 1 -120 -55 -191 -190 -243 -27 -10 -54 -15 -59
-12 -9 6 -16 226 -13 435 l1 49 32 -7 c18 -3 48 -11 68 -16z"/>
</g>
</svg>
